<svg xmlns="http://www.w3.org/2000/svg" xmlns:xlink="http://www.w3.org/1999/xlink" version="1.1" x="0px" y="0px"
     viewBox="0 0 595.3 841.9" style="enable-background:new 0 0 595.3 841.9;" xml:space="preserve">
<style type="text/css">
	.st0{fill:#3F6C2C;}
	.st1{display:none;}
	.st2{display:inline;opacity:0.4;fill:#010202;}
	.st3{fill:#FFFFFF;}
	.st4{fill:#FFFFFF;stroke:#A4C72C;stroke-width:6;stroke-miterlimit:10;}
	.st5{fill:#FEEC3F;}
	.st6{fill:#F28B46;}
</style>
    <g id="katman_1">
	<circle id="XMLID_1_" class="st0" cx="304" cy="431.8" r="270.5"/>
</g>
    <g id="katman_6" class="st1">
	<path id="XMLID_9_" class="st2"
          d="M33.5,431.8c0,61.5,20.5,118.2,55.1,163.6h430.8c34.6-45.4,55.1-102.1,55.1-163.6   c0-51.8-14.6-100.2-39.9-141.4H73.4C48.1,331.6,33.5,380,33.5,431.8z"/>
</g>
    <g id="katman_2">
	<g id="XMLID_42_">
		<path id="XMLID_43_" class="st3"
              d="M90.1,392.5v-82.8h28.5V391c0,6.1,3.3,9.3,8.8,9.3c2.4,0,4.9-0.8,6.4-1.5l1.2,21.4    c-4.6,1.5-8.8,2.1-13.3,2.1C102.1,422.3,90.1,412,90.1,392.5z"/>
        <path id="XMLID_46_" class="st3"
              d="M144.7,315.4c0-8.5,6.1-14.7,14.8-14.7s14.8,6.1,14.8,14.7c0,8.7-6.1,14.8-14.8,14.8    S144.7,324.1,144.7,315.4z M145.3,339.7h28.5V421h-28.5V339.7z"/>
        <path id="XMLID_49_" class="st3"
              d="M331,374.5V421h-28.5v-41.8c0-11.7-4.8-16.6-12.3-16.6c-8.2,0-14.2,5.5-14.2,18.1V421h-28.5    v-41.8c0-11.7-4.6-16.6-12.3-16.6c-8.4,0-14.4,5.5-14.4,18.1V421h-28.5v-81.3h27.1v8.5c6.1-6.6,14.7-9.9,24.3-9.9    c11.1,0,20.5,4,26.2,12.7c6.4-8.1,16.5-12.7,28.2-12.7C317.1,338.3,331,349.3,331,374.5z"/>
        <path id="XMLID_51_" class="st3"
              d="M345.1,380.2c0-24.4,19.3-41.8,45.9-41.8c26.8,0,45.9,17.4,45.9,41.8    c0,24.6-19,42.1-45.9,42.1C364.5,422.3,345.1,404.8,345.1,380.2z M408.1,380.2c0-12.3-7.3-19.2-17.1-19.2    c-9.6,0-17.1,6.9-17.1,19.2c0,12.4,7.5,19.5,17.1,19.5C400.8,399.7,408.1,392.6,408.1,380.2z"/>
        <path id="XMLID_54_" class="st3"
              d="M536.7,374.5V421h-28.5v-41.8c0-11.7-5.1-16.6-13.3-16.6c-9.1,0-16.2,5.7-16.2,19.2V421h-28.5    v-81.3h27.1v8.8c6.4-6.7,15.6-10.2,25.8-10.2C522.1,338.3,536.7,349.3,536.7,374.5z"/>
	</g>
        <g id="XMLID_4_">
		<path id="XMLID_31_" class="st3"
              d="M99.6,509.6c0-37.8,29.7-65.5,70-65.5s70,27.7,70,65.5s-29.7,65.5-70,65.5    S99.6,547.4,99.6,509.6z M203.6,509.6c0-21.8-14.9-36-34-36c-19.1,0-34,14.2-34,36s14.9,36,34,36    C188.7,545.6,203.6,531.3,203.6,509.6z"/>
            <path id="XMLID_37_" class="st3"
                  d="M258.3,446.6h59.6c41.8,0,70.4,24.3,70.4,63s-28.6,63-70.4,63h-59.6V446.6z M316.5,544.1    c21.4,0,35.8-12.8,35.8-34.6S337.9,475,316.5,475H294v69.1H316.5z"/>
            <path id="XMLID_40_" class="st3"
                  d="M398.2,561.2l11.7-26.3c11.2,7.4,27,12.4,41.6,12.4c14.8,0,20.5-4.1,20.5-10.3    c0-20-71.6-5.4-71.6-52.2c0-22.5,18.4-40.9,55.8-40.9c16.4,0,33.3,3.8,45.7,11l-11,26.5c-12.1-6.5-23.9-9.7-34.9-9.7    c-14.9,0-20.3,5-20.3,11.3c0,19.3,71.5,4.9,71.5,51.3c0,22-18.4,40.7-55.8,40.7C430.6,575.1,410.1,569.5,398.2,561.2z"/>
	</g>
</g>
    <g id="katman_4">
	<g id="XMLID_20_">
		<circle id="XMLID_57_" class="st4" cx="391.6" cy="380.9" r="52.8"/>
        <g id="XMLID_21_">
			<path id="XMLID_45_" class="st5"
                  d="M391.5,332.3h7.1c5.4,0,9.3,4.3,7.7,8.6l-5.8,15.9l-4.3,11.8c-1.6,4.3-7.7,4.3-9.3,0     l-4.3-11.8l-5.8-15.9c-1.6-4.3,2.3-8.6,7.7-8.6H391.5z"/>
            <path id="XMLID_28_" class="st5"
                  d="M425.7,346.5l5,5c3.8,3.8,3.5,9.6-0.6,11.5l-15.4,7.1l-11.4,5.3c-4.2,1.9-8.5-2.4-6.6-6.6     l5.3-11.4l7.1-15.4c1.9-4.1,7.7-4.4,11.5-0.6L425.7,346.5z"/>
            <path id="XMLID_27_" class="st5"
                  d="M343,380.7v-7.1c0-5.4,4.3-9.3,8.6-7.7l15.9,5.8l11.8,4.3c4.3,1.6,4.3,7.7,0,9.3l-11.8,4.3     l-15.9,5.8c-4.3,1.6-8.6-2.3-8.6-7.7V380.7z"/>
            <path id="XMLID_26_" class="st5"
                  d="M357.1,346.4l5-5c3.8-3.8,9.6-3.5,11.5,0.6l7.1,15.4l5.3,11.4c1.9,4.2-2.4,8.5-6.6,6.6     l-11.4-5.3l-15.4-7.1c-4.1-1.9-4.4-7.7-0.6-11.5L357.1,346.4z"/>
            <path id="XMLID_25_" class="st5"
                  d="M441.3,380.5v7.1c0,5.4-4.3,9.3-8.6,7.7l-15.9-5.8l-11.8-4.3c-4.3-1.6-4.3-7.7,0-9.3     l11.8-4.3l15.9-5.8c4.3-1.6,8.6,2.3,8.6,7.7V380.5z"/>
            <path id="XMLID_24_" class="st5"
                  d="M425.8,414.3l-5,5c-3.8,3.8-9.6,3.5-11.5-0.6l-7.1-15.4l-5.3-11.4c-1.9-4.2,2.4-8.5,6.6-6.6     l11.4,5.3l15.4,7.1c4.1,1.9,4.4,7.7,0.6,11.5L425.8,414.3z"/>
            <path id="XMLID_23_" class="st5"
                  d="M391.6,428.5h-7.1c-5.4,0-9.3-4.3-7.7-8.6l5.8-15.9l4.3-11.8c1.6-4.3,7.7-4.3,9.3,0l4.3,11.8     l5.8,15.9c1.6,4.3-2.3,8.6-7.7,8.6H391.6z"/>
            <path id="XMLID_22_" class="st5"
                  d="M356.5,415.5l-5-5c-3.8-3.8-3.5-9.6,0.6-11.5l15.4-7.1l11.4-5.3c4.2-1.9,8.5,2.4,6.6,6.6     l-5.3,11.4l-7.1,15.4c-1.9,4.1-7.7,4.4-11.5,0.6L356.5,415.5z"/>
		</g>
	</g>
        <g id="XMLID_7_">
		<circle id="XMLID_19_" class="st4" cx="171.8" cy="506" r="74"/>
            <g id="XMLID_8_">
			<path id="XMLID_18_" class="st5"
                  d="M171.7,438h9.9c7.6,0,13,6,10.8,12l-8.2,22.3l-6,16.5c-2.2,6.1-10.8,6.1-13,0l-6-16.5     L151,450c-2.2-6,3.2-12,10.8-12H171.7z"/>
                <path id="XMLID_16_" class="st5"
                      d="M219.7,457.8l7,7c5.3,5.3,4.9,13.4-0.9,16.1l-21.5,10l-15.9,7.4c-5.9,2.7-11.9-3.4-9.2-9.2     l7.4-15.9l10-21.5c2.7-5.8,10.8-6.2,16.1-0.9L219.7,457.8z"/>
                <path id="XMLID_15_" class="st5"
                      d="M103.7,505.7v-9.9c0-7.6,6-13,12-10.8l22.3,8.2l16.5,6c6.1,2.2,6.1,10.8,0,13l-16.5,6     l-22.3,8.2c-6,2.2-12-3.2-12-10.8V505.7z"/>
                <path id="XMLID_14_" class="st5"
                      d="M123.5,457.7l7-7c5.3-5.3,13.4-4.9,16.1,0.9l10,21.5l7.4,15.9c2.7,5.9-3.4,11.9-9.2,9.2     l-15.9-7.4l-21.5-10c-5.8-2.7-6.2-10.8-0.9-16.1L123.5,457.7z"/>
                <path id="XMLID_13_" class="st5"
                      d="M241.5,505.4v9.9c0,7.6-6,13-12,10.8l-22.3-8.2l-16.5-6c-6.1-2.2-6.1-10.8,0-13l16.5-6     l22.3-8.2c6-2.2,12,3.2,12,10.8V505.4z"/>
                <path id="XMLID_12_" class="st5"
                      d="M219.8,552.8l-7,7c-5.3,5.3-13.4,4.9-16.1-0.9l-10-21.5l-7.4-15.9c-2.7-5.9,3.4-11.9,9.2-9.2     l15.9,7.4l21.5,10c5.8,2.7,6.2,10.8,0.9,16.1L219.8,552.8z"/>
                <path id="XMLID_11_" class="st5"
                      d="M171.8,572.8h-9.9c-7.6,0-13-6-10.8-12l8.2-22.3l6-16.5c2.2-6.1,10.8-6.1,13,0l6,16.5     l8.2,22.3c2.2,6-3.2,12-10.8,12H171.8z"/>
                <path id="XMLID_10_" class="st5"
                      d="M122.7,554.4l-7-7c-5.3-5.3-4.9-13.4,0.9-16.1l21.5-10l15.9-7.4c5.9-2.7,11.9,3.4,9.2,9.2     l-7.4,15.9l-10,21.5c-2.7,5.8-10.8,6.2-16.1,0.9L122.7,554.4z"/>
		</g>
	</g>
</g>
    <g id="katman_5">
	<g id="XMLID_29_">
		<path id="XMLID_17_" class="st6"
              d="M158.3,491.3c0.4-3,0-10.8-4.3-16.6c-2.1-2.8-7.1-5.1-9.4-3.6c-3,2-2.3,11.4,3.1,15.8    C155.2,493,157.9,494.1,158.3,491.3z"/>
        <path id="XMLID_30_" class="st3"
              d="M154.8,488c2.6-1.6,2-8.9-1.7-13.2c-1.9-2.3-5.6-4.8-7.7-3.7c-2.6,1.5-2.5,9.1,1.5,13.6    C149,487,152.8,489.3,154.8,488z"/>
	</g>
        <g id="XMLID_32_">
		<path id="XMLID_34_" class="st6"
              d="M190.7,493.5c2.4-1.8,7.6-7.6,8.7-14.8c0.5-3.5-1.4-8.6-4.1-9.1c-3.5-0.7-9.7,6.4-9,13.3    C187.4,492.5,188.5,495.2,190.7,493.5z"/>
            <path id="XMLID_33_" class="st3"
                  d="M190.6,488.7c2.9,0.7,7.7-4.8,8.2-10.5c0.2-3-0.6-7.4-2.8-8c-2.9-0.8-8.2,4.7-8.5,10.6    C187.2,483.8,188.3,488.1,190.6,488.7z"/>
	</g>
</g>
</svg>